<svg version="1.1" xmlns="http://www.w3.org/2000/svg" viewBox="0 0 583.2795508410006 154.70428496128318" width="1749.8386525230019" height="464.11285488384954">
  <!-- svg-source:excalidraw -->
  
  <defs>
    <style class="style-fonts">
      @font-face {
        font-family: "Virgil";
        src: url("https://excalidraw.com/Virgil.woff2");
      }
      @font-face {
        font-family: "Cascadia";
        src: url("https://excalidraw.com/Cascadia.woff2");
      }
      @font-face {
        font-family: "Assistant";
        src: url("https://excalidraw.com/Assistant-Regular.woff2");
      }
    </style>
    
  </defs>
  <g stroke-linecap="round"><g transform="translate(11.656538308039217 80.2719500169244) rotate(0 136.79973458511495 -33.99978670528827)"><path d="M-1.66 -0.36 C19.97 -11.65, 85.41 -69.97, 131.21 -70.27 C177 -70.57, 249.74 -13.5, 273.11 -2.18 M2.64 -3.02 C23.82 -13.8, 84.58 -68.41, 129.31 -67.87 C174.04 -67.34, 247.46 -11.02, 271.03 0.18" stroke="#e03131" stroke-width="4" fill="none"></path></g><g transform="translate(11.656538308039217 80.2719500169244) rotate(0 136.79973458511495 -33.99978670528827)"><path d="M246.23 -4.13 C253.45 -3.11, 262.71 -2.67, 269.9 -1.36 M245.64 -5.32 C252.05 -3.99, 258.43 -2.52, 271.93 0.12" stroke="#e03131" stroke-width="4" fill="none"></path></g><g transform="translate(11.656538308039217 80.2719500169244) rotate(0 136.79973458511495 -33.99978670528827)"><path d="M255.03 -18.79 C259.02 -12.67, 265.19 -7.08, 269.9 -1.36 M254.44 -19.98 C258.56 -14.93, 262.76 -9.82, 271.93 0.12" stroke="#e03131" stroke-width="4" fill="none"></path></g></g><mask></mask><g stroke-linecap="round" transform="translate(57.751192382043655 59.72661050581104) rotate(0 81.40454607082745 30)"><path d="M0 0 C0 0, 0 0, 0 0 M0 0 C0 0, 0 0, 0 0 M-0.26 6.4 C0.65 4.98, 2.73 3.53, 4.99 0.36 M-0.26 6.4 C1.41 3.93, 3.39 1.54, 4.99 0.36 M0.13 12.04 C3.3 6.97, 6.89 6.54, 10.63 -0.03 M0.13 12.04 C1.93 10.02, 4.57 7.51, 10.63 -0.03 M-0.13 18.44 C7.77 10.05, 11.88 3.34, 15.62 0.33 M-0.13 18.44 C5 13.25, 10.76 6.23, 15.62 0.33 M0.27 24.08 C6.81 13.55, 16.88 6.97, 21.26 -0.07 M0.27 24.08 C7.09 16.66, 15.81 8.49, 21.26 -0.07 M0 30.48 C9.5 19.35, 19.56 5.76, 26.25 0.29 M0 30.48 C5.93 22.75, 12.65 14.62, 26.25 0.29 M-0.26 36.88 C12.2 25.02, 19.61 13.52, 31.89 -0.1 M-0.26 36.88 C11.27 23.26, 20.77 11.49, 31.89 -0.1 M0.14 42.52 C8.83 31.72, 21.12 17.27, 36.88 0.26 M0.14 42.52 C10.6 29.43, 21.32 17.79, 36.88 0.26 M-0.12 48.92 C12.04 34.33, 25.77 19.71, 42.52 -0.14 M-0.12 48.92 C12.68 34.49, 25.37 20.61, 42.52 -0.14 M0.27 54.56 C14.85 40.6, 27.39 22.82, 47.51 0.22 M0.27 54.56 C13.29 39.93, 25.38 25.86, 47.51 0.22 M0.67 60.2 C19.42 37.11, 39.15 16.27, 53.15 -0.17 M0.67 60.2 C14.27 44.98, 26.04 29.65, 53.15 -0.17 M5.65 60.56 C17.24 46.78, 30.75 31.58, 58.14 0.19 M5.65 60.56 C18.73 44.85, 31 30.56, 58.14 0.19 M11.3 60.17 C24.75 45.39, 34.89 31.17, 63.78 -0.21 M11.3 60.17 C29.76 41.35, 46.34 19.59, 63.78 -0.21 M16.28 60.53 C29.37 48.02, 39.81 32.04, 68.77 0.15 M16.28 60.53 C34.81 40.57, 53.46 18.84, 68.77 0.15 M21.93 60.14 C35.57 45.62, 52.02 26.33, 74.41 -0.24 M21.93 60.14 C32.7 45.8, 44.63 32.85, 74.41 -0.24 M26.91 60.5 C41.76 39.81, 62.09 19.91, 79.4 0.12 M26.91 60.5 C47.23 35.23, 69.05 12.36, 79.4 0.12 M32.56 60.1 C48.8 39.51, 67.36 18.85, 85.04 -0.28 M32.56 60.1 C44.65 45.92, 56.62 31.09, 85.04 -0.28 M37.54 60.46 C58.19 36.31, 77.51 12.54, 90.03 0.08 M37.54 60.46 C48.63 47.84, 59.71 35.08, 90.03 0.08 M43.19 60.07 C62.84 38.41, 81.01 17.57, 95.67 -0.31 M43.19 60.07 C57.68 43.12, 72.96 24.8, 95.67 -0.31 M48.17 60.43 C67.85 38.99, 83.76 17.73, 100.66 0.05 M48.17 60.43 C65.59 40.62, 84.09 19.72, 100.66 0.05 M53.16 60.79 C65.77 46.41, 81.83 28.01, 106.3 -0.34 M53.16 60.79 C70.58 40.86, 87.97 21.1, 106.3 -0.34 M58.8 60.39 C74.01 43.09, 90.21 22.13, 111.29 0.02 M58.8 60.39 C76.47 40.38, 92.24 21.82, 111.29 0.02 M63.79 60.75 C78.93 39.49, 99.52 22.47, 116.27 0.38 M63.79 60.75 C78.72 44.13, 93.13 26.51, 116.27 0.38 M69.43 60.36 C78.85 46.37, 91.01 34.12, 121.92 -0.02 M69.43 60.36 C80.66 45.4, 93.56 32.06, 121.92 -0.02 M74.42 60.72 C88.16 48.2, 96.82 30.91, 126.91 0.34 M74.42 60.72 C91.7 42.1, 108.61 22.93, 126.91 0.34 M80.06 60.32 C98.72 36.27, 118.59 12.79, 132.55 -0.05 M80.06 60.32 C97.94 38.96, 116.39 17.86, 132.55 -0.05 M85.05 60.68 C104.25 40.3, 121.97 19.27, 137.54 0.31 M85.05 60.68 C105.89 37.01, 127.47 13.33, 137.54 0.31 M90.69 60.29 C102.49 46.89, 113.77 35.39, 143.18 -0.09 M90.69 60.29 C102.49 47.41, 114.82 31.82, 143.18 -0.09 M95.68 60.65 C111.52 41.97, 129.88 24.11, 148.17 0.27 M95.68 60.65 C110.54 42.53, 126.04 24.71, 148.17 0.27 M101.32 60.25 C114.38 45.87, 126.83 29.44, 153.81 -0.12 M101.32 60.25 C116.4 41.68, 132.92 24.67, 153.81 -0.12 M106.31 60.61 C128.9 35.55, 147.29 12.06, 158.8 0.24 M106.31 60.61 C126.3 35.83, 147.02 12.2, 158.8 0.24 M111.95 60.22 C129.05 43.69, 144.65 24.94, 163.78 0.6 M111.95 60.22 C125.62 47.1, 137.77 31.81, 163.78 0.6 M116.94 60.58 C132.89 38.39, 151.82 19.69, 163.52 7 M116.94 60.58 C130.7 43.95, 146.83 26.12, 163.52 7 M122.58 60.18 C135.73 44.1, 151.24 25.79, 163.92 12.64 M122.58 60.18 C138.28 40.91, 154.54 22.39, 163.92 12.64 M127.57 60.55 C135.44 48.1, 145.38 36.59, 163.65 19.04 M127.57 60.55 C135.18 50.74, 144.22 40.12, 163.65 19.04 M133.21 60.15 C137.98 54.41, 148.08 43.98, 163.39 25.43 M133.21 60.15 C144.85 48.44, 154.43 36.14, 163.39 25.43 M138.2 60.51 C149.41 49.46, 158.5 38.12, 163.79 31.08 M138.2 60.51 C144.45 54.56, 148.27 46.66, 163.79 31.08 M143.84 60.12 C152.05 54.11, 158.4 44.22, 163.53 37.47 M143.84 60.12 C150.99 51.82, 159.14 42.43, 163.53 37.47 M148.83 60.48 C156.13 51.91, 159.57 46.56, 163.92 43.12 M148.83 60.48 C152.64 55.23, 156.64 51.13, 163.92 43.12 M154.47 60.08 C158.26 56.46, 161.87 52.3, 163.66 49.52 M154.47 60.08 C157.02 57.38, 159.15 54.95, 163.66 49.52 M159.46 60.44 C161.55 59.16, 161.94 56.64, 163.4 55.91 M159.46 60.44 C160.27 59.52, 161.29 58.9, 163.4 55.91" stroke="#ffc9c9" stroke-width="0.5" fill="none"></path><path d="M0 0 C44.29 0.69, 86.03 0.71, 162.81 0 M0 0 C39.57 0.77, 79.35 0.68, 162.81 0 M162.81 0 C162.71 14.97, 161.65 30.38, 162.81 60 M162.81 0 C162.34 23.55, 162.93 45.58, 162.81 60 M162.81 60 C108.06 61.87, 50.04 59.89, 0 60 M162.81 60 C101.65 59.42, 42.09 59.88, 0 60 M0 60 C-0.36 38.36, 0.7 15.37, 0 0 M0 60 C0.86 37.38, -1.01 16.89, 0 0" stroke="#e03131" stroke-width="1" fill="none"></path></g><g transform="translate(128.64740524669423 69.02661050581105) rotate(0 10.508333206176758 20.69999999999999)"><text x="10.508333206176758" y="0" font-family="Helvetica, Segoe UI Emoji" font-size="36px" fill="#e03131" text-anchor="middle" style="white-space: pre;" direction="ltr" dominant-baseline="text-before-edge">=</text></g><g transform="translate(51.53537531201323 123.7217822751872) rotate(0 87.34166717529297 10)"><text x="87.34166717529297" y="0" font-family="Virgil, Segoe UI Emoji" font-size="16px" fill="#e03131" text-anchor="middle" style="white-space: pre;" direction="ltr" dominant-baseline="text-before-edge">Convert Email to Gist</text></g><g stroke-linecap="round" transform="translate(67.47814374472478 85.2086047775789) rotate(0 20.909090909090878 12.81524926686214)"><path d="M0.72 0.16 L42.35 -0.34 L41.95 25.13 L0.58 26.31" stroke="none" stroke-width="0" fill="#fab005"></path><path d="M0 0 C11.6 0.87, 24.38 0.27, 41.82 0 M0 0 C15.69 0.04, 31.7 -0.23, 41.82 0 M41.82 0 C42.54 6.81, 42.69 13.4, 41.82 25.63 M41.82 0 C42.05 8.92, 41.89 19.01, 41.82 25.63 M41.82 25.63 C26.44 26.33, 9.03 24.83, 0 25.63 M41.82 25.63 C27.86 26.13, 13.21 25.82, 0 25.63 M0 25.63 C0.6 17.95, 0.39 10.98, 0 0 M0 25.63 C0.55 19.7, -0.02 13.19, 0 0" stroke="#e03131" stroke-width="1" fill="none"></path></g><g stroke-linecap="round" transform="translate(73.98889565690843 71.23882747647491) rotate(313.80652764409916 14.68050420098632 14.116616497309508)"><path d="M0.53 -0.34 L29.49 -0.51 L29.94 28.91 L-0.17 27.58" stroke="none" stroke-width="0" fill="#868e96"></path><path d="M0 0 C8.61 0.13, 17.98 0.59, 29.36 0 M0 0 C10.79 -0.13, 21.6 -0.4, 29.36 0 M29.36 0 C30.44 6.96, 30.14 14.91, 29.36 28.23 M29.36 0 C29.47 8.19, 29.84 15.55, 29.36 28.23 M29.36 28.23 C20.36 27.57, 12.99 28.39, 0 28.23 M29.36 28.23 C17.92 28.33, 6.63 28.59, 0 28.23 M0 28.23 C0.37 22.38, -0.73 13.73, 0 0 M0 28.23 C-0.27 16.99, 0.24 6.48, 0 0" stroke="#e03131" stroke-width="1" fill="none"></path></g><g stroke-linecap="round"><g transform="translate(305.78611612536406 81.25445270302043) rotate(0 131.94262219864527 -18.214171449261528)"><path d="M-1.54 -0.41 C21.35 -6.9, 93.66 -37.03, 137.55 -37.74 C181.44 -38.46, 240.91 -9.88, 261.8 -4.71 M2.82 -3.1 C25.43 -9.33, 91.91 -33.8, 136.02 -34.83 C180.14 -35.86, 246.35 -14.37, 267.49 -9.28" stroke="#e03131" stroke-width="4" fill="none"></path></g><g transform="translate(305.78611612536406 81.25445270302043) rotate(0 131.94262219864527 -18.214171449261528)"><path d="M242.29 -6.24 C249.3 -9.17, 259.16 -9.06, 267.3 -7.57 M241.74 -7.04 C247.9 -7.3, 255.39 -8.9, 268.01 -9.87" stroke="#e03131" stroke-width="4" fill="none"></path></g><g transform="translate(305.78611612536406 81.25445270302043) rotate(0 131.94262219864527 -18.214171449261528)"><path d="M246.76 -22.74 C252.46 -20.63, 260.95 -15.43, 267.3 -7.57 M246.21 -23.55 C251.33 -19.8, 257.73 -17.39, 268.01 -9.87" stroke="#e03131" stroke-width="4" fill="none"></path></g></g><mask></mask><g stroke-linecap="round" transform="translate(159.76181410571235 63.83487523236005) rotate(0 25.94125138416007 25.94125138416001)"><path d="M51.88 25.94 C51.88 27.44, 51.75 28.97, 51.49 30.45 C51.23 31.92, 50.83 33.4, 50.32 34.81 C49.8 36.22, 49.16 37.61, 48.41 38.91 C47.66 40.21, 46.78 41.47, 45.81 42.62 C44.85 43.77, 43.77 44.85, 42.62 45.81 C41.47 46.78, 40.21 47.66, 38.91 48.41 C37.61 49.16, 36.22 49.8, 34.81 50.32 C33.4 50.83, 31.92 51.23, 30.45 51.49 C28.97 51.75, 27.44 51.88, 25.94 51.88 C24.44 51.88, 22.92 51.75, 21.44 51.49 C19.96 51.23, 18.48 50.83, 17.07 50.32 C15.66 49.8, 14.27 49.16, 12.97 48.41 C11.67 47.66, 10.42 46.78, 9.27 45.81 C8.12 44.85, 7.03 43.77, 6.07 42.62 C5.1 41.47, 4.23 40.21, 3.48 38.91 C2.72 37.61, 2.08 36.22, 1.56 34.81 C1.05 33.4, 0.65 31.92, 0.39 30.45 C0.13 28.97, 0 27.44, 0 25.94 C0 24.44, 0.13 22.92, 0.39 21.44 C0.65 19.96, 1.05 18.48, 1.56 17.07 C2.08 15.66, 2.72 14.27, 3.48 12.97 C4.23 11.67, 5.1 10.42, 6.07 9.27 C7.03 8.12, 8.12 7.03, 9.27 6.07 C10.42 5.1, 11.67 4.23, 12.97 3.48 C14.27 2.72, 15.66 2.08, 17.07 1.56 C18.48 1.05, 19.96 0.65, 21.44 0.39 C22.92 0.13, 24.44 0, 25.94 0 C27.44 0, 28.97 0.13, 30.45 0.39 C31.92 0.65, 33.4 1.05, 34.81 1.56 C36.22 2.08, 37.61 2.72, 38.91 3.48 C40.21 4.23, 41.47 5.1, 42.62 6.07 C43.77 7.03, 44.85 8.12, 45.81 9.27 C46.78 10.42, 47.66 11.67, 48.41 12.97 C49.16 14.27, 49.8 15.66, 50.32 17.07 C50.83 18.48, 51.23 19.96, 51.49 21.44 C51.75 22.92, 51.82 25.19, 51.88 25.94 C51.95 26.69, 51.95 25.19, 51.88 25.94" stroke="none" stroke-width="0" fill="#868e96"></path><path d="M51.88 25.94 C51.88 27.44, 51.75 28.97, 51.49 30.45 C51.23 31.92, 50.83 33.4, 50.32 34.81 C49.8 36.22, 49.16 37.61, 48.41 38.91 C47.66 40.21, 46.78 41.47, 45.81 42.62 C44.85 43.77, 43.77 44.85, 42.62 45.81 C41.47 46.78, 40.21 47.66, 38.91 48.41 C37.61 49.16, 36.22 49.8, 34.81 50.32 C33.4 50.83, 31.92 51.23, 30.45 51.49 C28.97 51.75, 27.44 51.88, 25.94 51.88 C24.44 51.88, 22.92 51.75, 21.44 51.49 C19.96 51.23, 18.48 50.83, 17.07 50.32 C15.66 49.8, 14.27 49.16, 12.97 48.41 C11.67 47.66, 10.42 46.78, 9.27 45.81 C8.12 44.85, 7.03 43.77, 6.07 42.62 C5.1 41.47, 4.23 40.21, 3.48 38.91 C2.72 37.61, 2.08 36.22, 1.56 34.81 C1.05 33.4, 0.65 31.92, 0.39 30.45 C0.13 28.97, 0 27.44, 0 25.94 C0 24.44, 0.13 22.92, 0.39 21.44 C0.65 19.96, 1.05 18.48, 1.56 17.07 C2.08 15.66, 2.72 14.27, 3.48 12.97 C4.23 11.67, 5.1 10.42, 6.07 9.27 C7.03 8.12, 8.12 7.03, 9.27 6.07 C10.42 5.1, 11.67 4.23, 12.97 3.48 C14.27 2.72, 15.66 2.08, 17.07 1.56 C18.48 1.05, 19.96 0.65, 21.44 0.39 C22.92 0.13, 24.44 0, 25.94 0 C27.44 0, 28.97 0.13, 30.45 0.39 C31.92 0.65, 33.4 1.05, 34.81 1.56 C36.22 2.08, 37.61 2.72, 38.91 3.48 C40.21 4.23, 41.47 5.1, 42.62 6.07 C43.77 7.03, 44.85 8.12, 45.81 9.27 C46.78 10.42, 47.66 11.67, 48.41 12.97 C49.16 14.27, 49.8 15.66, 50.32 17.07 C50.83 18.48, 51.23 19.96, 51.49 21.44 C51.75 22.92, 51.82 25.19, 51.88 25.94 C51.95 26.69, 51.95 25.19, 51.88 25.94" stroke="#e03131" stroke-width="1" fill="none"></path></g><g stroke-linecap="round"><g transform="translate(175.50957803639858 74.2429258419184) rotate(0 8.101785926389994 15.719472469046622)" fill-rule="evenodd"><path d="M0 0 C0.42 0.15, 1.82 0.44, 2.52 0.89 C3.23 1.34, 3.55 2.53, 4.22 2.71 C4.89 2.89, 5.08 2.06, 6.54 1.95 C8 1.84, 11.59 1.99, 13 2.04 C14.42 2.09, 14.42 2.41, 15.02 2.24 C15.61 2.06, 15.96 1.45, 16.58 0.99 C17.2 0.54, 18.28 -0.6, 18.74 -0.51 C19.2 -0.42, 19.25 0.88, 19.34 1.56 C19.43 2.24, 18.96 2.92, 19.28 3.57 C19.6 4.22, 20.79 4.24, 21.27 5.47 C21.74 6.69, 22.12 9.05, 22.15 10.91 C22.19 12.77, 21.91 15.29, 21.46 16.61 C21.01 17.93, 20.23 18.26, 19.44 18.82 C18.64 19.39, 17.64 19.7, 16.69 20.01 C15.73 20.32, 14.08 20.43, 13.72 20.66 C13.35 20.9, 14.22 21.01, 14.5 21.4 C14.78 21.8, 15.21 21.91, 15.39 23.04 C15.57 24.17, 15.55 26.8, 15.57 28.18 C15.6 29.55, 15.7 30.68, 15.54 31.29 C15.37 31.89, 15.95 31.71, 14.57 31.82 C13.19 31.93, 8.61 32.08, 7.24 31.95 C5.87 31.82, 6.52 31.81, 6.32 31.05 C6.13 30.29, 6.39 27.92, 6.07 27.39 C5.74 26.86, 5.13 27.75, 4.38 27.86 C3.63 27.97, 2.48 28.26, 1.58 28.04 C0.68 27.82, -0.33 27.23, -1.03 26.54 C-1.74 25.86, -2.12 24.63, -2.66 23.92 C-3.19 23.22, -3.69 22.77, -4.24 22.31 C-4.79 21.86, -6.05 21.33, -5.95 21.18 C-5.85 21.03, -4.29 21.15, -3.63 21.4 C-2.97 21.65, -2.57 22.17, -1.98 22.67 C-1.4 23.18, -0.81 23.96, -0.12 24.44 C0.57 24.92, 1.35 25.41, 2.15 25.54 C2.94 25.67, 4.03 25.44, 4.66 25.23 C5.29 25.01, 5.68 24.67, 5.9 24.25 C6.13 23.83, 5.89 23.19, 6.02 22.72 C6.15 22.24, 6.43 21.7, 6.69 21.38 C6.95 21.06, 7.96 21.02, 7.56 20.78 C7.16 20.54, 5.35 20.25, 4.28 19.93 C3.21 19.62, 1.93 19.46, 1.14 18.9 C0.35 18.34, 0.01 17.89, -0.46 16.57 C-0.92 15.25, -1.61 12.78, -1.65 10.96 C-1.7 9.15, -1.09 6.81, -0.7 5.69 C-0.32 4.57, 0.57 4.81, 0.67 4.24 C0.76 3.67, -0.01 2.98, -0.12 2.28 C-0.23 1.57, -0.02 0.38, 0 0" stroke="none" stroke-width="0" fill="#fff" fill-rule="evenodd"></path><path d="M0 0 C0.42 0.15, 1.82 0.44, 2.52 0.89 C3.23 1.34, 3.55 2.53, 4.22 2.71 C4.89 2.89, 5.08 2.06, 6.54 1.95 C8 1.84, 11.59 1.99, 13 2.04 C14.42 2.09, 14.42 2.41, 15.02 2.24 C15.61 2.06, 15.96 1.45, 16.58 0.99 C17.2 0.54, 18.28 -0.6, 18.74 -0.51 C19.2 -0.42, 19.25 0.88, 19.34 1.56 C19.43 2.24, 18.96 2.92, 19.28 3.57 C19.6 4.22, 20.79 4.24, 21.27 5.47 C21.74 6.69, 22.12 9.05, 22.15 10.91 C22.19 12.77, 21.91 15.29, 21.46 16.61 C21.01 17.93, 20.23 18.26, 19.44 18.82 C18.64 19.39, 17.64 19.7, 16.69 20.01 C15.73 20.32, 14.08 20.43, 13.72 20.66 C13.35 20.9, 14.22 21.01, 14.5 21.4 C14.78 21.8, 15.21 21.91, 15.39 23.04 C15.57 24.17, 15.55 26.8, 15.57 28.18 C15.6 29.55, 15.7 30.68, 15.54 31.29 C15.37 31.89, 15.95 31.71, 14.57 31.82 C13.19 31.93, 8.61 32.08, 7.24 31.95 C5.87 31.82, 6.52 31.81, 6.32 31.05 C6.13 30.29, 6.39 27.92, 6.07 27.39 C5.74 26.86, 5.13 27.75, 4.38 27.86 C3.63 27.97, 2.48 28.26, 1.58 28.04 C0.68 27.82, -0.33 27.23, -1.03 26.54 C-1.74 25.86, -2.12 24.63, -2.66 23.92 C-3.19 23.22, -3.69 22.77, -4.24 22.31 C-4.79 21.86, -6.05 21.33, -5.95 21.18 C-5.85 21.03, -4.29 21.15, -3.63 21.4 C-2.97 21.65, -2.57 22.17, -1.98 22.67 C-1.4 23.18, -0.81 23.96, -0.12 24.44 C0.57 24.92, 1.35 25.41, 2.15 25.54 C2.94 25.67, 4.03 25.44, 4.66 25.23 C5.29 25.01, 5.68 24.67, 5.9 24.25 C6.13 23.83, 5.89 23.19, 6.02 22.72 C6.15 22.24, 6.43 21.7, 6.69 21.38 C6.95 21.06, 7.96 21.02, 7.56 20.78 C7.16 20.54, 5.35 20.25, 4.28 19.93 C3.21 19.62, 1.93 19.46, 1.14 18.9 C0.35 18.34, 0.01 17.89, -0.46 16.57 C-0.92 15.25, -1.61 12.78, -1.65 10.96 C-1.7 9.15, -1.09 6.81, -0.7 5.69 C-0.32 4.57, 0.57 4.81, 0.67 4.24 C0.76 3.67, -0.01 2.98, -0.12 2.28 C-0.23 1.57, -0.02 0.38, 0 0 M0 0 C0.42 0.15, 1.82 0.44, 2.52 0.89 C3.23 1.34, 3.55 2.53, 4.22 2.71 C4.89 2.89, 5.08 2.06, 6.54 1.95 C8 1.84, 11.59 1.99, 13 2.04 C14.42 2.09, 14.42 2.41, 15.02 2.24 C15.61 2.06, 15.96 1.45, 16.58 0.99 C17.2 0.54, 18.28 -0.6, 18.74 -0.51 C19.2 -0.42, 19.25 0.88, 19.34 1.56 C19.43 2.24, 18.96 2.92, 19.28 3.57 C19.6 4.22, 20.79 4.24, 21.27 5.47 C21.74 6.69, 22.12 9.05, 22.15 10.91 C22.19 12.77, 21.91 15.29, 21.46 16.61 C21.01 17.93, 20.23 18.26, 19.44 18.82 C18.64 19.39, 17.64 19.7, 16.69 20.01 C15.73 20.32, 14.08 20.43, 13.72 20.66 C13.35 20.9, 14.22 21.01, 14.5 21.4 C14.78 21.8, 15.21 21.91, 15.39 23.04 C15.57 24.17, 15.55 26.8, 15.57 28.18 C15.6 29.55, 15.7 30.68, 15.54 31.29 C15.37 31.89, 15.95 31.71, 14.57 31.82 C13.19 31.93, 8.61 32.08, 7.24 31.95 C5.87 31.82, 6.52 31.81, 6.32 31.05 C6.13 30.29, 6.39 27.92, 6.07 27.39 C5.74 26.86, 5.13 27.75, 4.38 27.86 C3.63 27.97, 2.48 28.26, 1.58 28.04 C0.68 27.82, -0.33 27.23, -1.03 26.54 C-1.74 25.86, -2.12 24.63, -2.66 23.92 C-3.19 23.22, -3.69 22.77, -4.24 22.31 C-4.79 21.86, -6.05 21.33, -5.95 21.18 C-5.85 21.03, -4.29 21.15, -3.63 21.4 C-2.97 21.65, -2.57 22.17, -1.98 22.67 C-1.4 23.18, -0.81 23.96, -0.12 24.44 C0.57 24.92, 1.35 25.41, 2.15 25.54 C2.94 25.67, 4.03 25.44, 4.66 25.23 C5.29 25.01, 5.68 24.67, 5.9 24.25 C6.13 23.83, 5.89 23.19, 6.02 22.72 C6.15 22.24, 6.43 21.7, 6.69 21.38 C6.95 21.06, 7.96 21.02, 7.56 20.78 C7.16 20.54, 5.35 20.25, 4.28 19.93 C3.21 19.62, 1.93 19.46, 1.14 18.9 C0.35 18.34, 0.01 17.89, -0.46 16.57 C-0.92 15.25, -1.61 12.78, -1.65 10.96 C-1.7 9.15, -1.09 6.81, -0.7 5.69 C-0.32 4.57, 0.57 4.81, 0.67 4.24 C0.76 3.67, -0.01 2.98, -0.12 2.28 C-0.23 1.57, -0.02 0.38, 0 0" stroke="#e03131" stroke-width="1" fill="none"></path></g></g><mask></mask><g stroke-linecap="round" transform="translate(366.452107358778 65.56622557837682) rotate(0 76.69723943990368 28.265217291367946)"><path d="M0 0 C0 0, 0 0, 0 0 M0 0 C0 0, 0 0, 0 0 M-0.26 6.4 C0.51 5.68, 1.32 3.79, 4.99 0.36 M-0.26 6.4 C1.67 4.46, 3.36 2.56, 4.99 0.36 M0.13 12.04 C3.73 8.54, 5.42 4.48, 10.63 -0.03 M0.13 12.04 C2.33 9.87, 5.03 6.58, 10.63 -0.03 M-0.13 18.44 C5.2 12.06, 9 8.38, 15.62 0.33 M-0.13 18.44 C3.76 12.62, 7.51 8.13, 15.62 0.33 M0.27 24.08 C8.74 15.72, 13.91 7.64, 21.26 -0.07 M0.27 24.08 C7.65 15.66, 14.98 6.36, 21.26 -0.07 M0 30.48 C7.76 23.36, 12.83 17.7, 26.25 0.29 M0 30.48 C8.8 20.34, 17.17 11.51, 26.25 0.29 M-0.26 36.88 C10.99 23.75, 18.91 14.58, 31.89 -0.1 M-0.26 36.88 C10.08 23.88, 21.28 11.5, 31.89 -0.1 M0.14 42.52 C12.27 26.11, 27.72 10.98, 36.88 0.26 M0.14 42.52 C11.64 28.5, 22.6 15.96, 36.88 0.26 M-0.12 48.92 C13.39 32.89, 26.53 15.32, 42.52 -0.14 M-0.12 48.92 C12.4 34.96, 25.07 18.97, 42.52 -0.14 M0.27 54.56 C15.04 38.95, 26.69 25.78, 47.51 0.22 M0.27 54.56 C17.33 33.06, 35.07 13.64, 47.51 0.22 M3.29 57.19 C18.33 38.53, 32.89 21.7, 53.15 -0.17 M3.29 57.19 C14.85 45.01, 26.22 30.75, 53.15 -0.17 M8.93 56.79 C25.98 34.09, 45.24 12.42, 58.14 0.19 M8.93 56.79 C24.85 39.87, 38.59 22.15, 58.14 0.19 M13.92 57.15 C28.5 37.68, 45.49 23.45, 63.78 -0.21 M13.92 57.15 C24.66 45.05, 34.05 34.3, 63.78 -0.21 M19.56 56.76 C38.68 34.56, 54.67 15.97, 68.77 0.15 M19.56 56.76 C34.66 39.53, 50.84 20.44, 68.77 0.15 M24.55 57.12 C33.06 45.69, 43.52 32.32, 74.41 -0.24 M24.55 57.12 C40.71 37.56, 57.46 20.18, 74.41 -0.24 M29.54 57.48 C40.37 42.09, 54.44 31.32, 79.4 0.12 M29.54 57.48 C41.75 43.61, 53.13 29.85, 79.4 0.12 M35.18 57.08 C51.56 36.41, 70.68 12.94, 85.04 -0.28 M35.18 57.08 C44.84 44.92, 56.39 32.65, 85.04 -0.28 M40.17 57.44 C55.8 40.88, 68.44 23.2, 90.03 0.08 M40.17 57.44 C54.8 42.92, 67.75 27.28, 90.03 0.08 M45.81 57.05 C66.65 35.86, 85.46 12.38, 95.67 -0.31 M45.81 57.05 C59.72 40.1, 74.69 25.43, 95.67 -0.31 M50.8 57.41 C72.1 35.97, 88.68 10.53, 100.66 0.05 M50.8 57.41 C64.47 40.66, 79.27 24.02, 100.66 0.05 M56.44 57.01 C74.4 38.17, 92.2 17.49, 106.3 -0.34 M56.44 57.01 C70.22 41.26, 84.75 24.25, 106.3 -0.34 M61.43 57.37 C76.2 42.54, 86.86 27.64, 111.29 0.02 M61.43 57.37 C78.22 37.2, 95.6 18.86, 111.29 0.02 M67.07 56.98 C84.51 34.04, 104.19 12.38, 116.27 0.38 M67.07 56.98 C86.19 35.41, 104.77 13.73, 116.27 0.38 M72.06 57.34 C89.32 35.29, 105.87 17.74, 121.92 -0.02 M72.06 57.34 C88.79 39.25, 103.62 22.26, 121.92 -0.02 M77.7 56.94 C92.42 40.24, 105.89 23.83, 126.91 0.34 M77.7 56.94 C87.6 44.29, 100.27 31.6, 126.91 0.34 M82.69 57.3 C95.64 43.45, 103.76 33.42, 132.55 -0.05 M82.69 57.3 C95.85 43.21, 109.83 26.41, 132.55 -0.05 M88.33 56.91 C103.06 41.94, 117.72 21.59, 137.54 0.31 M88.33 56.91 C104.19 40.48, 118.44 22.56, 137.54 0.31 M93.32 57.27 C112.13 36.31, 126.29 17.21, 143.18 -0.09 M93.32 57.27 C110.89 38.35, 128.24 18.24, 143.18 -0.09 M98.96 56.88 C115.8 37.87, 131.63 18.03, 148.17 0.27 M98.96 56.88 C109.85 45.4, 121.77 31.53, 148.17 0.27 M103.95 57.24 C119.34 37.67, 134.96 21.01, 153.81 -0.12 M103.95 57.24 C114.99 43.02, 127.23 30.24, 153.81 -0.12 M109.59 56.84 C128.69 36.43, 143.66 17.97, 153.55 6.27 M109.59 56.84 C126.19 37.03, 142.96 17.77, 153.55 6.27 M114.58 57.2 C124.83 47.09, 130.84 36.07, 153.29 12.67 M114.58 57.2 C124.86 44.78, 137.16 31.25, 153.29 12.67 M120.22 56.81 C130 44.18, 138.28 34.3, 153.68 18.32 M120.22 56.81 C132.24 43.03, 142 30.51, 153.68 18.32 M125.21 57.17 C132.69 51.06, 137.97 41.07, 153.42 24.71 M125.21 57.17 C132.15 50.56, 138.1 42.28, 153.42 24.71 M130.85 56.77 C139.84 46.65, 144.67 39.36, 153.81 30.36 M130.85 56.77 C139.38 46.62, 148.23 35.69, 153.81 30.36 M135.84 57.13 C140.36 50.48, 148.6 44.6, 153.55 36.75 M135.84 57.13 C140.21 51.84, 144.24 48.1, 153.55 36.75 M140.83 57.49 C142.57 54.97, 147.76 50.41, 153.29 43.15 M140.83 57.49 C143.92 54.38, 146.47 51.68, 153.29 43.15 M146.47 57.1 C149.13 53.78, 151.39 52.75, 153.68 48.8 M146.47 57.1 C148.38 55.36, 150.68 53.01, 153.68 48.8 M151.46 57.46 C151.99 56.58, 153.04 55.61, 153.42 55.19 M151.46 57.46 C151.92 56.93, 152.68 56.26, 153.42 55.19" stroke="#ffc9c9" stroke-width="0.5" fill="none"></path><path d="M0 0 C36.64 -2.21, 76.42 -1.44, 153.39 0 M0 0 C44.79 0.33, 88.16 0.99, 153.39 0 M153.39 0 C151.86 13.76, 152.36 26.66, 153.39 56.53 M153.39 0 C153.23 19.61, 153.03 41.83, 153.39 56.53 M153.39 56.53 C114.97 54.64, 74.58 56.43, 0 56.53 M153.39 56.53 C116.59 57.53, 79.25 56.5, 0 56.53 M0 56.53 C2.01 33.85, 1.69 14.66, 0 0 M0 56.53 C-0.02 35.42, -1.43 15.22, 0 0" stroke="#e03131" stroke-width="1" fill="none"></path></g><g transform="translate(433.2243466079467 74.3284429387009) rotate(0 9.925000190734863 19.502999931043888)"><text x="9.925000190734863" y="0" font-family="Helvetica, Segoe UI Emoji" font-size="33.918260749641526px" fill="#e03131" text-anchor="middle" style="white-space: pre;" direction="ltr" dominant-baseline="text-before-edge">=</text></g><g transform="translate(372.2203758255673 125.8608067670379) rotate(0 68.37826862208101 9.42173909712264)"><text x="68.37826862208101" y="0" font-family="Virgil, Segoe UI Emoji" font-size="15.074782555396233px" fill="#e03131" text-anchor="middle" style="white-space: pre;" direction="ltr" dominant-baseline="text-before-edge">Render HTML Gist</text></g><g stroke-linecap="round" transform="translate(373.4747591103828 71.3305919854086) rotate(0 23.917454556464236 23.917454556464236)"><path d="M47.83 23.92 C47.83 25.3, 47.71 26.71, 47.47 28.07 C47.23 29.43, 46.87 30.8, 46.39 32.1 C45.92 33.4, 45.32 34.68, 44.63 35.88 C43.94 37.08, 43.13 38.23, 42.24 39.29 C41.35 40.35, 40.35 41.35, 39.29 42.24 C38.23 43.13, 37.08 43.94, 35.88 44.63 C34.68 45.32, 33.4 45.92, 32.1 46.39 C30.8 46.87, 29.43 47.23, 28.07 47.47 C26.71 47.71, 25.3 47.83, 23.92 47.83 C22.53 47.83, 21.13 47.71, 19.76 47.47 C18.4 47.23, 17.04 46.87, 15.74 46.39 C14.44 45.92, 13.16 45.32, 11.96 44.63 C10.76 43.94, 9.6 43.13, 8.54 42.24 C7.48 41.35, 6.49 40.35, 5.6 39.29 C4.71 38.23, 3.9 37.08, 3.2 35.88 C2.51 34.68, 1.92 33.4, 1.44 32.1 C0.97 30.8, 0.6 29.43, 0.36 28.07 C0.12 26.71, 0 25.3, 0 23.92 C0 22.53, 0.12 21.13, 0.36 19.76 C0.6 18.4, 0.97 17.04, 1.44 15.74 C1.92 14.44, 2.51 13.16, 3.2 11.96 C3.9 10.76, 4.71 9.6, 5.6 8.54 C6.49 7.48, 7.48 6.49, 8.54 5.6 C9.6 4.71, 10.76 3.9, 11.96 3.2 C13.16 2.51, 14.44 1.92, 15.74 1.44 C17.04 0.97, 18.4 0.6, 19.76 0.36 C21.13 0.12, 22.53 0, 23.92 0 C25.3 0, 26.71 0.12, 28.07 0.36 C29.43 0.6, 30.8 0.97, 32.1 1.44 C33.4 1.92, 34.68 2.51, 35.88 3.2 C37.08 3.9, 38.23 4.71, 39.29 5.6 C40.35 6.49, 41.35 7.48, 42.24 8.54 C43.13 9.6, 43.94 10.76, 44.63 11.96 C45.32 13.16, 45.92 14.44, 46.39 15.74 C46.87 17.04, 47.23 18.4, 47.47 19.76 C47.71 21.13, 47.77 23.23, 47.83 23.92 C47.9 24.61, 47.9 23.23, 47.83 23.92" stroke="none" stroke-width="0" fill="#868e96"></path><path d="M47.83 23.92 C47.83 25.3, 47.71 26.71, 47.47 28.07 C47.23 29.43, 46.87 30.8, 46.39 32.1 C45.92 33.4, 45.32 34.68, 44.63 35.88 C43.94 37.08, 43.13 38.23, 42.24 39.29 C41.35 40.35, 40.35 41.35, 39.29 42.24 C38.23 43.13, 37.08 43.94, 35.88 44.63 C34.68 45.32, 33.4 45.92, 32.1 46.39 C30.8 46.87, 29.43 47.23, 28.07 47.47 C26.71 47.71, 25.3 47.83, 23.92 47.83 C22.53 47.83, 21.13 47.71, 19.76 47.47 C18.4 47.23, 17.04 46.87, 15.74 46.39 C14.44 45.92, 13.16 45.32, 11.96 44.63 C10.76 43.94, 9.6 43.13, 8.54 42.24 C7.48 41.35, 6.49 40.35, 5.6 39.29 C4.71 38.23, 3.9 37.08, 3.2 35.88 C2.51 34.68, 1.92 33.4, 1.44 32.1 C0.97 30.8, 0.6 29.43, 0.36 28.07 C0.12 26.71, 0 25.3, 0 23.92 C0 22.53, 0.12 21.13, 0.36 19.76 C0.6 18.4, 0.97 17.04, 1.44 15.74 C1.92 14.44, 2.51 13.16, 3.2 11.96 C3.9 10.76, 4.71 9.6, 5.6 8.54 C6.49 7.48, 7.48 6.49, 8.54 5.6 C9.6 4.71, 10.76 3.9, 11.96 3.2 C13.16 2.51, 14.44 1.92, 15.74 1.44 C17.04 0.97, 18.4 0.6, 19.76 0.36 C21.13 0.12, 22.53 0, 23.92 0 C25.3 0, 26.71 0.12, 28.07 0.36 C29.43 0.6, 30.8 0.97, 32.1 1.44 C33.4 1.92, 34.68 2.51, 35.88 3.2 C37.08 3.9, 38.23 4.71, 39.29 5.6 C40.35 6.49, 41.35 7.48, 42.24 8.54 C43.13 9.6, 43.94 10.76, 44.63 11.96 C45.32 13.16, 45.92 14.44, 46.39 15.74 C46.87 17.04, 47.23 18.4, 47.47 19.76 C47.71 21.13, 47.77 23.23, 47.83 23.92 C47.9 24.61, 47.9 23.23, 47.83 23.92" stroke="#e03131" stroke-width="1" fill="none"></path></g><g stroke-linecap="round"><g transform="translate(387.99396724727694 80.9266624983174) rotate(0 7.4697281889398255 14.493123822838584)" fill-rule="evenodd"><path d="M0 0 C0.39 0.14, 1.68 0.4, 2.33 0.82 C2.97 1.23, 3.28 2.34, 3.89 2.5 C4.51 2.66, 4.68 1.9, 6.03 1.8 C7.38 1.69, 10.69 1.83, 11.99 1.88 C13.29 1.92, 13.3 2.22, 13.85 2.06 C14.4 1.9, 14.71 1.34, 15.28 0.92 C15.86 0.49, 16.86 -0.56, 17.28 -0.47 C17.71 -0.38, 17.75 0.81, 17.83 1.44 C17.91 2.06, 17.48 2.69, 17.78 3.29 C18.08 3.89, 19.17 3.91, 19.61 5.04 C20.05 6.17, 20.4 8.35, 20.42 10.06 C20.45 11.77, 20.2 14.1, 19.78 15.31 C19.37 16.53, 18.66 16.83, 17.92 17.35 C17.19 17.88, 16.27 18.17, 15.39 18.45 C14.51 18.73, 12.98 18.84, 12.65 19.05 C12.31 19.27, 13.86 18, 13.37 19.73 C12.88 21.47, 9.55 28.41, 9.71 29.45 C9.88 30.49, 13.59 26.08, 14.36 25.98 C15.13 25.88, 14.48 28.28, 14.32 28.84 C14.17 29.41, 14.71 29.24, 13.43 29.34 C12.16 29.44, 7.94 29.57, 6.68 29.46 C5.41 29.34, 6.01 29.33, 5.83 28.63 C5.65 27.93, 5.89 25.75, 5.59 25.26 C5.3 24.77, 4.73 25.59, 4.04 25.69 C3.35 25.79, 2.29 26.06, 1.46 25.85 C0.63 25.65, -0.3 25.1, -0.95 24.47 C-1.6 23.84, -1.96 22.71, -2.45 22.06 C-2.94 21.41, -3.4 20.99, -3.91 20.57 C-4.42 20.15, -5.58 19.67, -5.49 19.53 C-5.39 19.39, -3.95 19.5, -3.35 19.73 C-2.74 19.96, -2.37 20.44, -1.83 20.9 C-1.29 21.37, -0.74 22.09, -0.11 22.53 C0.53 22.97, 1.25 23.43, 1.98 23.55 C2.71 23.67, 3.72 23.46, 4.3 23.26 C4.87 23.06, 5.23 22.75, 5.44 22.36 C5.65 21.97, 5.43 21.39, 5.55 20.94 C5.67 20.5, 5.93 20.01, 6.17 19.71 C6.4 19.41, 7.34 19.38, 6.97 19.16 C6.6 18.93, 4.93 18.67, 3.94 18.38 C2.96 18.09, 2.53 19.06, 1.05 17.43 C-0.42 15.79, -4.47 9.78, -4.9 8.56 C-5.33 7.34, -2.23 10.66, -1.53 10.11 C-0.82 9.55, -1.01 6.28, -0.65 5.24 C-0.29 4.21, 0.53 4.43, 0.62 3.91 C0.7 3.39, -0.01 2.75, -0.11 2.1 C-0.21 1.45, -0.02 0.35, 0 0" stroke="none" stroke-width="0" fill="#fff" fill-rule="evenodd"></path><path d="M0 0 C0.39 0.14, 1.68 0.4, 2.33 0.82 C2.97 1.23, 3.28 2.34, 3.89 2.5 C4.51 2.66, 4.68 1.9, 6.03 1.8 C7.38 1.69, 10.69 1.83, 11.99 1.88 C13.29 1.92, 13.3 2.22, 13.85 2.06 C14.4 1.9, 14.71 1.34, 15.28 0.92 C15.86 0.49, 16.86 -0.56, 17.28 -0.47 C17.71 -0.38, 17.75 0.81, 17.83 1.44 C17.91 2.06, 17.48 2.69, 17.78 3.29 C18.08 3.89, 19.17 3.91, 19.61 5.04 C20.05 6.17, 20.4 8.35, 20.42 10.06 C20.45 11.77, 20.2 14.1, 19.78 15.31 C19.37 16.53, 18.66 16.83, 17.92 17.35 C17.19 17.88, 16.27 18.17, 15.39 18.45 C14.51 18.73, 12.98 18.84, 12.65 19.05 C12.31 19.27, 13.86 18, 13.37 19.73 C12.88 21.47, 9.55 28.41, 9.71 29.45 C9.88 30.49, 13.59 26.08, 14.36 25.98 C15.13 25.88, 14.48 28.28, 14.32 28.84 C14.17 29.41, 14.71 29.24, 13.43 29.34 C12.16 29.44, 7.94 29.57, 6.68 29.46 C5.41 29.34, 6.01 29.33, 5.83 28.63 C5.65 27.93, 5.89 25.75, 5.59 25.26 C5.3 24.77, 4.73 25.59, 4.04 25.69 C3.35 25.79, 2.29 26.06, 1.46 25.85 C0.63 25.65, -0.3 25.1, -0.95 24.47 C-1.6 23.84, -1.96 22.71, -2.45 22.06 C-2.94 21.41, -3.4 20.99, -3.91 20.57 C-4.42 20.15, -5.58 19.67, -5.49 19.53 C-5.39 19.39, -3.95 19.5, -3.35 19.73 C-2.74 19.96, -2.37 20.44, -1.83 20.9 C-1.29 21.37, -0.74 22.09, -0.11 22.53 C0.53 22.97, 1.25 23.43, 1.98 23.55 C2.71 23.67, 3.72 23.46, 4.3 23.26 C4.87 23.06, 5.23 22.75, 5.44 22.36 C5.65 21.97, 5.43 21.39, 5.55 20.94 C5.67 20.5, 5.93 20.01, 6.17 19.71 C6.4 19.41, 7.34 19.38, 6.97 19.16 C6.6 18.93, 4.93 18.67, 3.94 18.38 C2.96 18.09, 2.53 19.06, 1.05 17.43 C-0.42 15.79, -4.47 9.78, -4.9 8.56 C-5.33 7.34, -2.23 10.66, -1.53 10.11 C-0.82 9.55, -1.01 6.28, -0.65 5.24 C-0.29 4.21, 0.53 4.43, 0.62 3.91 C0.7 3.39, -0.01 2.75, -0.11 2.1 C-0.21 1.45, -0.02 0.35, 0 0 M0 0 C0.39 0.14, 1.68 0.4, 2.33 0.82 C2.97 1.23, 3.28 2.34, 3.89 2.5 C4.51 2.66, 4.68 1.9, 6.03 1.8 C7.38 1.69, 10.69 1.83, 11.99 1.88 C13.29 1.92, 13.3 2.22, 13.85 2.06 C14.4 1.9, 14.71 1.34, 15.28 0.92 C15.86 0.49, 16.86 -0.56, 17.28 -0.47 C17.71 -0.38, 17.75 0.81, 17.83 1.44 C17.91 2.06, 17.48 2.69, 17.78 3.29 C18.08 3.89, 19.17 3.91, 19.61 5.04 C20.05 6.17, 20.4 8.35, 20.42 10.06 C20.45 11.77, 20.2 14.1, 19.78 15.31 C19.37 16.53, 18.66 16.83, 17.92 17.35 C17.19 17.88, 16.27 18.17, 15.39 18.45 C14.51 18.73, 12.98 18.84, 12.65 19.05 C12.31 19.27, 13.86 18, 13.37 19.73 C12.88 21.47, 9.55 28.41, 9.71 29.45 C9.88 30.49, 13.59 26.08, 14.36 25.98 C15.13 25.88, 14.48 28.28, 14.32 28.84 C14.17 29.41, 14.71 29.24, 13.43 29.34 C12.16 29.44, 7.94 29.57, 6.68 29.46 C5.41 29.34, 6.01 29.33, 5.83 28.63 C5.65 27.93, 5.89 25.75, 5.59 25.26 C5.3 24.77, 4.73 25.59, 4.04 25.69 C3.35 25.79, 2.29 26.06, 1.46 25.85 C0.63 25.65, -0.3 25.1, -0.95 24.47 C-1.6 23.84, -1.96 22.71, -2.45 22.06 C-2.94 21.41, -3.4 20.99, -3.91 20.57 C-4.42 20.15, -5.58 19.67, -5.49 19.53 C-5.39 19.39, -3.95 19.5, -3.35 19.73 C-2.74 19.96, -2.37 20.44, -1.83 20.9 C-1.29 21.37, -0.74 22.09, -0.11 22.53 C0.53 22.97, 1.25 23.43, 1.98 23.55 C2.71 23.67, 3.72 23.46, 4.3 23.26 C4.87 23.06, 5.23 22.75, 5.44 22.36 C5.65 21.97, 5.43 21.39, 5.55 20.94 C5.67 20.5, 5.93 20.01, 6.17 19.71 C6.4 19.41, 7.34 19.38, 6.97 19.16 C6.6 18.93, 4.93 18.67, 3.94 18.38 C2.96 18.09, 2.53 19.06, 1.05 17.43 C-0.42 15.79, -4.47 9.78, -4.9 8.56 C-5.33 7.34, -2.23 10.66, -1.53 10.11 C-0.82 9.55, -1.01 6.28, -0.65 5.24 C-0.29 4.21, 0.53 4.43, 0.62 3.91 C0.7 3.39, -0.01 2.75, -0.11 2.1 C-0.21 1.45, -0.02 0.35, 0 0" stroke="#e03131" stroke-width="1" fill="none"></path></g></g><mask></mask><g stroke-linecap="round"><g transform="translate(473.95360670206696 77.13240018407157) rotate(0 17.51539404434584 20.10289543726057)" fill-rule="evenodd"><path d="M0 0 L35.03 -0.2 L32.44 35.73 L17.71 40.4 L2.59 36.03 L0 0" stroke="none" stroke-width="0" fill="#e44d26" fill-rule="evenodd"></path><path d="M0 0 C10.53 -0.06, 21.07 -0.12, 35.03 -0.2 M0 0 C11.43 -0.06, 22.86 -0.13, 35.03 -0.2 M35.03 -0.2 C34.34 9.43, 33.64 19.05, 32.44 35.73 M35.03 -0.2 C34.43 8.1, 33.83 16.41, 32.44 35.73 M32.44 35.73 C28.6 36.95, 24.75 38.17, 17.71 40.4 M32.44 35.73 C28.92 36.85, 25.4 37.97, 17.71 40.4 M17.71 40.4 C14.1 39.36, 10.48 38.31, 2.59 36.03 M17.71 40.4 C11.91 38.72, 6.1 37.04, 2.59 36.03 M2.59 36.03 C1.57 21.92, 0.56 7.81, 0 0 M2.59 36.03 C2.07 28.79, 1.55 21.56, 0 0 M0 0 C0 0, 0 0, 0 0 M0 0 C0 0, 0 0, 0 0" stroke="#e03131" stroke-width="1" fill="none"></path></g></g><mask></mask><g stroke-linecap="round"><g transform="translate(490.97140432469837 80.11797871435772) rotate(0 7.613225252229881 16.370922274402773)" fill-rule="evenodd"><path d="M0 0 L1 33.04 L13.44 29.56 L15.23 -0.3 L0 0" stroke="none" stroke-width="0" fill="#f16529" fill-rule="evenodd"></path><path d="M0 0 C0.26 8.69, 0.52 17.38, 1 33.04 M0 0 C0.27 9.08, 0.55 18.17, 1 33.04 M1 33.04 C4.49 32.06, 7.99 31.08, 13.44 29.56 M1 33.04 C4.13 32.16, 7.26 31.29, 13.44 29.56 M13.44 29.56 C13.95 21.04, 14.46 12.52, 15.23 -0.3 M13.44 29.56 C13.98 20.45, 14.53 11.33, 15.23 -0.3 M15.23 -0.3 C11.27 -0.22, 7.31 -0.14, 0 0 M15.23 -0.3 C9.19 -0.18, 3.15 -0.06, 0 0 M0 0 C0 0, 0 0, 0 0 M0 0 C0 0, 0 0, 0 0" stroke="#e03131" stroke-width="1" fill="none"></path></g></g><mask></mask><g stroke-opacity="0.6" fill-opacity="0.6" transform="translate(483.5342946599292 68.4780243065423) rotate(0 9.246124251397305 3.8931049479567434)"><text x="0" y="0" font-family="Helvetica, Segoe UI Emoji" font-size="6.812933658924306px" fill="#e03131" text-anchor="start" style="white-space: pre;" direction="ltr" dominant-baseline="text-before-edge">HTML</text></g><g stroke-linecap="round"><g stroke-opacity="0.6" fill-opacity="0.6" transform="translate(499.828024260971 81.30296638770182) rotate(0 -8.0295289551608 13.058122846271573)" fill-rule="evenodd"><path d="M-0.55 -0.32 L-0.78 4.05 L-11.34 4.38 L-10.66 8.83 L0.04 9.6 L-0.57 23.85 L-8.4 25.24 L-14.08 24.15 L-16.84 15.61 L-12.11 15.98 L-11.33 19.54 L-8.77 21.82 L-3.26 18.27 L-2.93 12.88 L-16.7 13.16 L-15.79 0.49 L0.52 -0.48" stroke="none" stroke-width="0" fill="#fff" fill-rule="evenodd"></path><path d="M0 0 C-0.19 1.27, -0.48 2.37, -0.49 4.06 M0 0 C-0.15 0.95, -0.26 1.96, -0.49 4.06 M-0.49 4.06 C-4.33 4.31, -7.39 3.92, -10.71 3.57 M-0.49 4.06 C-4.47 3.97, -8.51 3.94, -10.71 3.57 M-10.71 3.57 C-10.83 5.51, -11.01 7.46, -11.03 8.27 M-10.71 3.57 C-10.9 5.48, -11.04 7.29, -11.03 8.27 M-11.03 8.27 C-8 8.69, -5.71 9.24, 0.16 9.41 M-11.03 8.27 C-8.2 8.55, -5.2 9.02, 0.16 9.41 M0.16 9.41 C0.22 12.91, -0.35 15.61, 0 23.2 M0.16 9.41 C-0.17 12.17, 0.17 14.9, 0 23.2 M0 23.2 C-2.54 24.36, -4.79 25.24, -7.46 26.12 M0 23.2 C-2.48 24.04, -5.07 25.21, -7.46 26.12 M-7.46 26.12 C-9.58 25.27, -10.87 25.2, -14.6 23.76 M-7.46 26.12 C-10.14 25.36, -13.03 24.35, -14.6 23.76 M-14.6 23.76 C-15.24 21.02, -16.09 17.52, -16.22 16.38 M-14.6 23.76 C-14.93 22.13, -15.45 20.16, -16.22 16.38 M-16.22 16.38 C-14.76 16.23, -13.51 16.46, -12.33 16.3 M-16.22 16.38 C-15.09 16.41, -13.91 16.28, -12.33 16.3 M-12.33 16.3 C-12.23 17.3, -12.36 18.4, -12.08 20.07 M-12.33 16.3 C-12.27 17.46, -12.27 18.53, -12.08 20.07 M-12.08 20.07 C-11 20.43, -10.32 20.91, -7.79 22.55 M-12.08 20.07 C-10.91 20.87, -9.7 21.51, -7.79 22.55 M-7.79 22.55 C-6.64 21.54, -5.41 20.82, -2.76 19.14 M-7.79 22.55 C-6.45 21.69, -4.79 20.69, -2.76 19.14 M-2.76 19.14 C-3.14 17.04, -2.8 15.18, -3.24 13.14 M-2.76 19.14 C-3.06 16.87, -3.04 14.72, -3.24 13.14 M-3.24 13.14 C-8.34 12.85, -12.77 12.42, -16.06 12.33 M-3.24 13.14 C-7.18 12.64, -10.77 12.63, -16.06 12.33 M-16.06 12.33 C-16.18 9.19, -15.75 5.98, -15.25 0 M-16.06 12.33 C-15.75 7.5, -15.64 2.93, -15.25 0 M-15.25 0 C-10.43 0.37, -4.38 0.01, 0 0 M-15.25 0 C-10.76 -0.45, -5.9 0.29, 0 0 M0 0 C0 0, 0 0, 0 0 M0 0 C0 0, 0 0, 0 0" stroke="#e03131" stroke-width="1" fill="none"></path></g></g><mask></mask></svg>